HIERARCHY
ROOT RootJoint
{
    OFFSET   0.000000   0.000000   0.000000
    CHANNELS 6 Xposition Yposition Zposition Xrotation Yrotation Zrotation
    JOINT pelvis_lowerback
    {
        OFFSET   0.000000   0.093605   0.000000
        CHANNELS 3 Xrotation Yrotation Zrotation
        JOINT lowerback_torso
        {
            OFFSET   0.000000   0.100000   0.000000
            CHANNELS 3 Xrotation Yrotation Zrotation
            JOINT torso_head
            {
                OFFSET   0.000000   0.282350   0.000000
                CHANNELS 3 Xrotation Yrotation Zrotation
                End Site
                {
                    OFFSET   0.000000   0.192650   0.000000
                }
            }
            JOINT rTorso_Clavicle
            {
                OFFSET  -0.001000   0.157500   0.000000
                CHANNELS 3 Xrotation Yrotation Zrotation
                JOINT rShoulder
                {
                    OFFSET  -0.117647   0.000000   0.000000
                    CHANNELS 3 Xrotation Yrotation Zrotation
                    JOINT rElbow
                    {
                        OFFSET  -0.245000   0.000000   0.000000
                        CHANNELS 3 Xrotation Yrotation Zrotation
                        JOINT rWrist
                        {
                            OFFSET  -0.240000   0.000000   0.000000
                            CHANNELS 3 Xrotation Yrotation Zrotation
                            End Site
                            {
                                OFFSET  -0.116353  -0.002500   0.000000
                            }
                        }
                    }
                }
            }
            JOINT lTorso_Clavicle
            {
                OFFSET   0.001000   0.157500   0.000000
                CHANNELS 3 Xrotation Yrotation Zrotation
                JOINT lShoulder
                {
                    OFFSET   0.117647   0.000000   0.000000
                    CHANNELS 3 Xrotation Yrotation Zrotation
                    JOINT lElbow
                    {
                        OFFSET   0.245000   0.000000   0.000000
                        CHANNELS 3 Xrotation Yrotation Zrotation
                        JOINT lWrist
                        {
                            OFFSET   0.240000   0.000000   0.000000
                            CHANNELS 3 Xrotation Yrotation Zrotation
                            End Site
                            {
                                OFFSET   0.116353  -0.002500   0.000000
                            }
                        }
                    }
                }
            }
        }
    }
    JOINT rHip
    {
        OFFSET  -0.100000  -0.051395   0.000000
        CHANNELS 3 Xrotation Yrotation Zrotation
        JOINT rKnee
        {
            OFFSET   0.000000  -0.410000   0.000000
            CHANNELS 3 Xrotation Yrotation Zrotation
            JOINT rAnkle
            {
                OFFSET   0.000000  -0.390000   0.000000
                CHANNELS 3 Xrotation Yrotation Zrotation
                JOINT rToeJoint
                {
                    OFFSET   0.000000  -0.050000   0.130000
                    CHANNELS 3 Xrotation Yrotation Zrotation
                    End Site
                    {
                        OFFSET  -0.010000   0.002000   0.060000
                    }
                }
            }
        }
    }
    JOINT lHip
    {
        OFFSET   0.100000  -0.051395   0.000000
        CHANNELS 3 Xrotation Yrotation Zrotation
        JOINT lKnee
        {
            OFFSET   0.000000  -0.410000   0.000000
            CHANNELS 3 Xrotation Yrotation Zrotation
            JOINT lAnkle
            {
                OFFSET   0.000000  -0.390000   0.000000
                CHANNELS 3 Xrotation Yrotation Zrotation
                JOINT lToeJoint
                {
                    OFFSET   0.000000  -0.050000   0.130000
                    CHANNELS 3 Xrotation Yrotation Zrotation
                    End Site
                    {
                        OFFSET   0.010000   0.002000   0.060000
                    }
                }
            }
        }
    }
}
MOTION
Frames: 7
Frame Time:   0.008333
 -3.105536   0.764909   4.297850  81.005736 -45.730942  52.001986   0.939402  14.007105  13.431826  19.768897 -10.130841 -10.627346  -7.613415  -4.186949   4.703186  -4.913853  22.598995   1.210561 -11.775534  -2.983199   9.725735  -0.001285  32.141552   0.000515  -3.157721   5.915807  -1.224154 -12.337525 -24.209410   2.718382 -12.844692  -5.838324 -15.721641  -0.001856   1.083714   0.006100  -9.975585  -8.718338   1.994406 -56.028755   1.474064   1.605740  87.934112  -0.004286  -0.008273  -8.044780  -5.881300   4.851787  -4.655130  -0.000322   0.007820 -97.257665  -2.516299  11.324488  31.417625  -0.021295  -0.014544  17.020076  -0.712392   6.574691   2.657577  -0.003082   0.007303
 -3.106280   0.765049   4.299085  82.766435 -45.420413  52.783437   1.146841  14.187134  13.353947  20.147607 -10.434347 -10.454838  -8.427251  -4.583865   4.576047  -5.086746  23.249445   1.514207 -12.476257  -2.391453   9.871951  -0.000884  32.154168   0.000315  -3.035800   5.835495  -1.611946 -12.817141 -25.051496   2.363949 -13.338606  -6.507904 -16.089356   0.003334   0.779698   0.007164  -9.832697  -9.224910   1.801220 -56.868167   1.434304   1.983690  87.344768  -0.003033  -0.003884  -8.119321  -6.157739   4.682655  -4.511789   0.000005   0.005302 -98.279653  -3.150970  11.885677  31.121397  -0.017247  -0.011432  16.806852  -0.268642   5.861196   2.953813  -0.000376   0.006709
 -3.106724   0.766204   4.300079  84.478740 -44.934716  53.465595   1.324727  14.379915  13.309730  20.444389 -10.659605 -10.247375  -9.210813  -4.965128   4.437097  -5.277342  23.918848   1.788509 -13.151931  -1.789917  10.004136  -0.000350  32.184655   0.000007  -2.936853   5.797151  -2.075001 -13.279824 -25.844007   2.087402 -13.807877  -7.145453 -16.404086   0.006933   0.485523   0.007955  -9.697021  -9.756272   1.568217 -57.687878   1.334645   2.331984  86.691753  -0.002374  -0.000290  -8.190015  -6.414961   4.526643  -4.357263   0.000333   0.003297 -99.236119  -3.745424  12.448862  30.667887  -0.013833  -0.009238  16.562796   0.147600   5.187368   3.173133   0.001110   0.006170
 -3.106951   0.768271   4.300846  86.075439 -44.290607  54.025327   1.468496  14.582975  13.299205  20.694025 -10.826797 -10.026081  -9.943671  -5.320327   4.300980  -5.468177  24.580991   2.032005 -13.790845  -1.200013  10.126270   0.000201  32.224328  -0.000336  -2.840588   5.815902  -2.543734 -13.724799 -26.589872   1.866507 -14.252705  -7.750365 -16.674867   0.009296   0.206113   0.008429  -9.566340 -10.303442   1.377865 -58.455401   1.232539   2.635321  86.056201  -0.002449   0.002145  -8.257622  -6.654887   4.381262  -4.216702   0.000667   0.001889 -100.123797  -4.328538  12.985391  30.175800  -0.010683  -0.007680  16.326529   0.535913   4.559050   3.364630   0.001914   0.005692
 -3.107097   0.770852   4.301504  87.618785 -43.588736  54.506283   1.561734  14.827183  13.343802  20.918552 -10.919066  -9.805115 -10.622571  -5.648372   4.167268  -5.655468  25.228719   2.248156 -14.392533  -0.625736  10.241378   0.000727  32.270559  -0.000667  -2.744127   5.883493  -2.987374 -14.144884 -27.265033   1.672630 -14.668342  -8.303226 -16.920603   0.010646  -0.051715   0.008546  -9.441727 -10.831397   1.221666 -59.126720   1.141774   2.928636  85.478209  -0.002798   0.003765  -8.321150  -6.878794   4.245343  -4.088861   0.000969   0.000871 -100.927271  -4.843460  13.518377  29.487540  -0.007995  -0.006968  15.996313   0.910939   3.936407   3.565053   0.002642   0.005452
 -3.107225   0.773679   4.302112  89.129012 -42.870519  54.945570   1.602713  15.113011  13.425637  21.118398 -10.937962  -9.595105 -11.253281  -5.951387   4.038510  -5.837952  25.858121   2.446023 -14.958138  -0.070679  10.354073   0.001199  32.321347  -0.000955  -2.647676   5.990127  -3.400253 -14.537727 -27.863389   1.493228 -15.053928  -8.799908 -17.149019   0.011261  -0.289974   0.008373  -9.343923 -10.722305   1.186110 -59.691793   1.066995   3.198890  84.970597  -0.003120   0.004854  -8.380043  -7.087953   4.118213  -3.971122   0.001219   0.000105 -101.657548  -5.332860  14.048241  28.668569  -0.005746  -0.006600  15.617095   1.264688   3.343661   3.744354   0.003074   0.005145
 -3.107363   0.776599   4.302688  90.603206 -42.150158  55.358580   1.595375  15.435143  13.529921  21.293103 -10.891221  -9.402884 -11.842565  -6.232059   3.915663  -6.014312  26.461839   2.631287 -15.488907   0.459655  10.466014   0.001590  32.374181  -0.001179  -2.551987   6.123759  -3.784716 -14.900337 -28.379959   1.322883 -15.407468  -9.231630 -17.362515   0.011208  -0.497184   0.007912  -9.250485 -10.633337   1.150546 -60.153304   1.009539   3.433112  84.530109  -0.003318   0.005561  -8.434228  -7.283494   3.999292  -3.861223   0.001415  -0.000484 -102.326994  -5.814271  14.570015  27.775906  -0.003873  -0.006212  15.215493   1.596228   2.787523   3.904471   0.003260   0.004752
